<svg width="82" height="21" viewBox="0 0 82 21" fill="none" xmlns="http://www.w3.org/2000/svg">
<path d="M0.643466 20.5V1.59091H13.3849V4.88707H4.64134V9.39276H12.7294V12.6889H4.64134V17.2038H13.4219V20.5H0.643466Z" fill="#1272CC"/>
<path d="M22.8972 20.777C21.4445 20.777 20.195 20.4692 19.1486 19.8537C18.1084 19.232 17.3082 18.3703 16.748 17.2685C16.1941 16.1667 15.9171 14.8987 15.9171 13.4645C15.9171 12.0118 16.1971 10.7377 16.7573 9.64204C17.3236 8.54025 18.1268 7.68158 19.1671 7.06605C20.2073 6.44437 21.4445 6.13352 22.8787 6.13352C24.1159 6.13352 25.1993 6.35819 26.1287 6.80753C27.0582 7.25686 27.7937 7.88778 28.3354 8.70028C28.8771 9.51278 29.1756 10.4669 29.231 11.5625H25.5194C25.4147 10.8546 25.1377 10.2853 24.6884 9.8544C24.2452 9.41738 23.6635 9.19886 22.9434 9.19886C22.334 9.19886 21.8016 9.36506 21.3461 9.69744C20.8967 10.0237 20.5459 10.5007 20.2935 11.1286C20.0411 11.7564 19.915 12.5166 19.915 13.4091C19.915 14.3139 20.0381 15.0833 20.2843 15.7173C20.5366 16.3513 20.8906 16.8345 21.3461 17.1669C21.8016 17.4993 22.334 17.6655 22.9434 17.6655C23.3927 17.6655 23.7959 17.5732 24.1529 17.3885C24.516 17.2038 24.8146 16.9361 25.0485 16.5852C25.2885 16.2282 25.4455 15.8004 25.5194 15.3018H29.231C29.1694 16.3852 28.874 17.3393 28.3446 18.1641C27.8214 18.9827 27.0982 19.6229 26.1749 20.0845C25.2516 20.5462 24.159 20.777 22.8972 20.777ZM35.6825 1.59091V20.5H31.7493V1.59091H35.6825ZM38.8333 20.5V6.31818H42.7665V20.5H38.8333ZM40.8091 4.49006C40.2244 4.49006 39.7227 4.29616 39.3042 3.90838C38.8917 3.51444 38.6855 3.04356 38.6855 2.49574C38.6855 1.95407 38.8917 1.48935 39.3042 1.10156C39.7227 0.707622 40.2244 0.510652 40.8091 0.510652C41.3939 0.510652 41.8925 0.707622 42.3049 1.10156C42.7234 1.48935 42.9327 1.95407 42.9327 2.49574C42.9327 3.04356 42.7234 3.51444 42.3049 3.90838C41.8925 4.29616 41.3939 4.49006 40.8091 4.49006ZM49.8505 12.3011V20.5H45.9173V6.31818H49.6658V8.82031H49.832C50.146 7.9955 50.6722 7.34304 51.4109 6.86293C52.1495 6.37666 53.0451 6.13352 54.0977 6.13352C55.0825 6.13352 55.9412 6.34896 56.6737 6.77983C57.4061 7.2107 57.9755 7.82623 58.3817 8.62642C58.788 9.42045 58.9911 10.3684 58.9911 11.4702V20.5H55.0579V12.1719C55.064 11.304 54.8424 10.6269 54.3931 10.1406C53.9438 9.6482 53.3252 9.40199 52.5373 9.40199C52.0079 9.40199 51.5401 9.51586 51.1339 9.74361C50.7338 9.97135 50.4199 10.3037 50.1921 10.7408C49.9705 11.1716 49.8567 11.6918 49.8505 12.3011ZM62.0911 20.5V6.31818H66.0243V20.5H62.0911ZM64.0669 4.49006C63.4822 4.49006 62.9805 4.29616 62.562 3.90838C62.1496 3.51444 61.9434 3.04356 61.9434 2.49574C61.9434 1.95407 62.1496 1.48935 62.562 1.10156C62.9805 0.707622 63.4822 0.510652 64.0669 0.510652C64.6517 0.510652 65.1503 0.707622 65.5627 1.10156C65.9812 1.48935 66.1905 1.95407 66.1905 2.49574C66.1905 3.04356 65.9812 3.51444 65.5627 3.90838C65.1503 4.29616 64.6517 4.49006 64.0669 4.49006ZM75.5827 20.777C74.1301 20.777 72.8806 20.4692 71.8342 19.8537C70.7939 19.232 69.9937 18.3703 69.4336 17.2685C68.8796 16.1667 68.6026 14.8987 68.6026 13.4645C68.6026 12.0118 68.8827 10.7377 69.4428 9.64204C70.0091 8.54025 70.8124 7.68158 71.8526 7.06605C72.8929 6.44437 74.1301 6.13352 75.5643 6.13352C76.8015 6.13352 77.8848 6.35819 78.8143 6.80753C79.7437 7.25686 80.4793 7.88778 81.021 8.70028C81.5626 9.51278 81.8612 10.4669 81.9165 11.5625H78.2049C78.1003 10.8546 77.8233 10.2853 77.3739 9.8544C76.9308 9.41738 76.3491 9.19886 75.6289 9.19886C75.0195 9.19886 74.4871 9.36506 74.0316 9.69744C73.5823 10.0237 73.2314 10.5007 72.979 11.1286C72.7267 11.7564 72.6005 12.5166 72.6005 13.4091C72.6005 14.3139 72.7236 15.0833 72.9698 15.7173C73.2222 16.3513 73.5761 16.8345 74.0316 17.1669C74.4871 17.4993 75.0195 17.6655 75.6289 17.6655C76.0782 17.6655 76.4814 17.5732 76.8384 17.3885C77.2016 17.2038 77.5001 16.9361 77.734 16.5852C77.9741 16.2282 78.131 15.8004 78.2049 15.3018H81.9165C81.855 16.3852 81.5595 17.3393 81.0302 18.1641C80.507 18.9827 79.7837 19.6229 78.8604 20.0845C77.9371 20.5462 76.8446 20.777 75.5827 20.777Z" fill="#00BA34"/>
</svg>
