<svg width="12" height="14" viewBox="0 0 12 14" fill="none" xmlns="http://www.w3.org/2000/svg">
<path fill-rule="evenodd" clip-rule="evenodd" d="M2.00002 0.599609C1.11637 0.599609 0.400024 1.31595 0.400024 2.19961V13.3996L3.20002 11.7996L6.00002 13.3996L8.80002 11.7996L11.6 13.3996V2.19961C11.6 1.31595 10.8837 0.599609 10 0.599609H2.00002ZM4.00002 2.99961C3.33728 2.99961 2.80002 3.53687 2.80002 4.19961C2.80002 4.86235 3.33728 5.39961 4.00002 5.39961C4.66277 5.39961 5.20002 4.86235 5.20002 4.19961C5.20002 3.53687 4.66277 2.99961 4.00002 2.99961ZM8.96571 3.23392C8.65329 2.9215 8.14676 2.9215 7.83434 3.23392L3.03434 8.03392C2.72192 8.34634 2.72192 8.85287 3.03434 9.16529C3.34676 9.47771 3.85329 9.47771 4.16571 9.16529L8.96571 4.36529C9.27813 4.05288 9.27813 3.54634 8.96571 3.23392ZM8.00002 6.99961C7.33728 6.99961 6.80002 7.53687 6.80002 8.19961C6.80002 8.86235 7.33728 9.39961 8.00002 9.39961C8.66277 9.39961 9.20002 8.86235 9.20002 8.19961C9.20002 7.53687 8.66277 6.99961 8.00002 6.99961Z" fill="#0085FF"/>
</svg>
